<svg xmlns="http://www.w3.org/2000/svg" xmlns:xlink="http://www.w3.org/1999/xlink" width="1936.169" height="902.547" viewBox="0 0 1936.169 902.547">
  <defs>
    <clipPath id="clip-path">
      <rect y="156" width="1936.169" height="902.547" fill="none"/>
    </clipPath>
  </defs>
  <g id="wave" transform="translate(26.67 -7.959)">
    <g id="Groupe_défilant_1" data-name="Groupe défilant 1" transform="translate(-26.67 -148.041)" clip-path="url(#clip-path)" style="isolation: isolate">
      <g id="Groupe_1" data-name="Groupe 1" transform="translate(0 0.032)">
        <g id="Tracé_1" data-name="Tracé 1" transform="translate(3.688 41.591)" fill="#d1f6ff">
          <path d="M1956.393,106.193a10.251,10.251,0,0,1-.9,4.2,11.1,11.1,0,0,1-2.44,3.452,11.977,11.977,0,0,1-7.943,3.325,348.524,348.524,0,0,0-42.641,4.176,535.863,535.863,0,0,0-70.5,16.12,707.461,707.461,0,0,0-94.171,35.777,900.842,900.842,0,0,0-113.645,63.043c-48.871,31.723-95.861,44-142.4,47.477-46.445,3.474-92.441-1.81-139.4-5.261-46.862-3.445-94.678-5.064-144.841,5.666-50.054,10.707-102.434,33.708-158.515,79.45-55.943,45.63-103.286,68.228-145.7,79.259-42.333,11.011-79.771,10.5-115.935,9.855-36.107-.646-70.948-1.43-108.11,8.974-37.1,10.387-76.509,31.923-121.771,75.866-50.95,49.464-107.074,84.659-163.345,109.507-56.131,24.786-112.407,39.276-163.87,47.381a773.147,773.147,0,0,1-134.835,9.08,655.561,655.561,0,0,1-76.874-5.744A9.235,9.235,0,0,1,5.324,696.7a9.365,9.365,0,0,1-2.558-2.118,9.629,9.629,0,0,1-1.68-2.887,9.825,9.825,0,0,1-.6-3.4V29.591a9.931,9.931,0,0,1,5.938-9.1,9.679,9.679,0,0,1,3.785-.808L1945.809.621a10.8,10.8,0,0,1,4.118.764,10.489,10.489,0,0,1,3.365,2.16,10.1,10.1,0,0,1,2.269,3.231,9.851,9.851,0,0,1,.832,3.976Z" stroke="none"/>
          <path d="M 96.74800109863281 704.1720581054688 C 92.08416748046875 704.147216796875 87.4326171875 704.080322265625 82.80137634277344 703.9719848632813 C 78.17107391357422 703.8636474609375 73.56106567382813 703.7138061523438 68.97934722900391 703.522705078125 C 64.39854431152344 703.3316040039063 59.84602737426758 703.0994873046875 55.32974243164063 702.8263549804688 C 50.81438446044922 702.5533447265625 46.33524322509766 702.2396240234375 41.90031814575195 701.8853149414063 C 38.14531326293945 701.5853881835938 34.61425018310547 701.2713623046875 31.32131767272949 700.9537353515625 C 28.02886962890625 700.63623046875 24.97440719604492 700.3150634765625 22.172119140625 700.000732421875 C 19.37017822265625 699.6864624023438 16.82028388977051 699.37890625 14.5366268157959 699.0885620117188 C 12.25320053100586 698.7982788085938 10.23590087890625 698.525146484375 8.498930931091309 698.279541015625 C 7.905480861663818 698.1954345703125 7.325060844421387 698.057373046875 6.763898849487305 697.8688354492188 C 6.202750205993652 697.6802368164063 5.660856246948242 697.441162109375 5.144443988800049 697.1550903320313 C 4.628043174743652 696.8689575195313 4.13712215423584 696.5357666015625 3.677904367446899 696.1589965820313 C 3.218696117401123 695.7822265625 2.791189670562744 695.36181640625 2.401609897613525 694.9012451171875 C 2.014384269714355 694.4434204101563 1.67066478729248 693.953369140625 1.372901201248169 693.437744140625 C 1.075141191482544 692.9220581054688 0.8233339786529541 692.3809814453125 0.6199291944503784 691.8209838867188 C 0.4165262281894684 691.2610473632813 0.2615244686603546 690.6824340820313 0.1573734730482101 690.0916137695313 C 0.05322298780083656 689.5008544921875 -7.763488247292116e-05 688.8980102539063 -7.763488247292116e-05 688.2899169921875 L 0.0001515283220214769 29.59523773193359 C 0.0001515283220214769 28.17559432983398 0.2862074971199036 26.81935119628906 0.8032024502754211 25.58266639709473 C 1.320209145545959 24.345947265625 2.068176507949829 23.2287654876709 2.991994380950928 22.28729057312012 C 3.915850639343262 21.34577941894531 5.015585899353027 20.5799732208252 6.236085414886475 20.04606819152832 C 7.456652164459229 19.51213455200195 8.79801082611084 19.21012687683105 10.20502948760986 19.19625091552734 L 1945.809204101563 0.1096404939889908 C 1947.340087890625 0.09454524517059326 1948.799560546875 0.3814074099063873 1950.127807617188 0.9127893447875977 C 1951.456420898438 1.444199562072754 1952.653564453125 2.220153093338013 1953.659301757813 3.183188915252686 C 1954.6650390625 4.146265983581543 1955.4794921875 5.296424865722656 1956.04248046875 6.576187133789063 C 1956.605224609375 7.855979919433594 1956.916870117188 9.265349388122559 1956.916870117188 10.74679565429688 L 1956.916870117188 106.1895370483398 C 1956.916870117188 107.7258758544922 1956.5859375 109.200309753418 1955.98828125 110.5507659912109 C 1955.390502929688 111.9011764526367 1954.525634765625 113.1275482177734 1953.457763671875 114.1677780151367 C 1952.3896484375 115.2079620361328 1951.118774414063 116.0620346069336 1949.708251953125 116.6678771972656 C 1948.2978515625 117.2736968994141 1946.747924804688 117.6313247680664 1945.122192382813 117.6787261962891 C 1940.483764648438 117.8138122558594 1934.544677734375 118.1249542236328 1927.38232421875 118.7720947265625 C 1920.222412109375 119.4190521240234 1911.840454101563 120.4017333984375 1902.314208984375 121.8798675537109 C 1892.791870117188 123.3573989868164 1882.127197265625 125.329833984375 1870.398193359375 127.9565658569336 C 1858.674926757813 130.5820007324219 1845.889282226563 133.8608245849609 1832.118896484375 137.9520263671875 C 1824.422607421875 140.2386474609375 1816.67041015625 142.7059783935547 1808.87646484375 145.3486633300781 C 1801.0849609375 147.990478515625 1793.25146484375 150.8075103759766 1785.389892578125 153.7944641113281 C 1777.531127929688 156.7804260253906 1769.64404296875 159.9361877441406 1761.74267578125 163.2564239501953 C 1753.84375 166.5755767822266 1745.930786132813 170.0590972900391 1738.017211914063 173.7017059326172 C 1733.49267578125 175.7843170166016 1728.950317382813 177.9273986816406 1724.398315429688 180.1268768310547 C 1719.84716796875 182.3258819580078 1715.286254882813 184.5812835693359 1710.723876953125 186.8890075683594 C 1706.162231445313 189.1962585449219 1701.598999023438 191.5558166503906 1697.0419921875 193.9636077880859 C 1692.48583984375 196.3709411621094 1687.93603515625 198.8264923095703 1683.400390625 201.3262634277344 C 1678.501098632813 204.0265045166016 1673.5859375 206.7959442138672 1668.664184570313 209.6294097900391 C 1663.743530273438 212.4622802734375 1658.816284179688 215.3591461181641 1653.890625 218.3148193359375 C 1648.966186523438 221.2698822021484 1644.043579101563 224.28369140625 1639.131103515625 227.3510894775391 C 1634.22021484375 230.4178466796875 1629.319458007813 233.5381774902344 1624.437744140625 236.7068634033203 C 1622.610229492188 237.8932037353516 1620.772338867188 239.0603332519531 1618.927001953125 240.2063293457031 C 1617.081787109375 241.3522338867188 1615.2294921875 242.4770355224609 1613.373168945313 243.5787963867188 C 1611.517211914063 244.6804962158203 1609.657104492188 245.7591094970703 1607.79638671875 246.8127746582031 C 1605.935791015625 247.8664093017578 1604.074340820313 248.8950347900391 1602.215576171875 249.8968353271484 C 1600.4111328125 250.8694763183594 1598.59521484375 251.8241119384766 1596.771362304688 252.7592468261719 C 1594.947631835938 253.6942596435547 1593.115478515625 254.6097564697266 1591.27880859375 255.504150390625 C 1589.4423828125 256.3984985351563 1587.600952148438 257.2716979980469 1585.75830078125 258.1222534179688 C 1583.915405273438 258.9727478027344 1582.071166992188 259.8006286621094 1580.228393554688 260.604248046875 C 1578.444702148438 261.3820495605469 1576.649169921875 262.1431274414063 1574.84423828125 262.88623046875 C 1573.039672851563 263.6293029785156 1571.22607421875 264.3544311523438 1569.406616210938 265.0603942871094 C 1567.587280273438 265.7662658691406 1565.76220703125 266.4529724121094 1563.934326171875 267.1192626953125 C 1562.107055664063 267.7855529785156 1560.276733398438 268.431396484375 1558.446899414063 269.0556335449219 C 1556.6826171875 269.6574401855469 1554.9052734375 270.2438659667969 1553.117553710938 270.8139038085938 C 1551.330200195313 271.384033203125 1549.532592773438 271.937744140625 1547.727905273438 272.4741821289063 C 1545.923583984375 273.0105590820313 1544.111938476563 273.5296630859375 1542.296630859375 274.0305480957031 C 1540.481567382813 274.5314331054688 1538.66259765625 275.0140991210938 1536.842895507813 275.4776000976563 C 1533.39306640625 276.3563842773438 1529.930541992188 277.1720886230469 1526.44287109375 277.927001953125 C 1522.955810546875 278.6817932128906 1519.44384765625 279.3757934570313 1515.894165039063 280.0112609863281 C 1512.345336914063 280.6466674804688 1508.758911132813 281.2235412597656 1505.122436523438 281.7441711425781 C 1501.486694335938 282.2646789550781 1497.80078125 282.7289733886719 1494.052612304688 283.1392517089844 C 1490.710327148438 283.5050964355469 1487.336181640625 283.82568359375 1483.91748046875 284.1016235351563 C 1480.499145507813 284.3775329589844 1477.036499023438 284.6088562011719 1473.517578125 284.7962951660156 C 1469.998779296875 284.9836730957031 1466.423461914063 285.127197265625 1462.778930664063 285.2274475097656 C 1459.135131835938 285.3276977539063 1455.422485351563 285.3847351074219 1451.628173828125 285.3992004394531 C 1448.479858398438 285.4112243652344 1445.2578125 285.3931579589844 1441.950439453125 285.3446655273438 C 1438.643432617188 285.2962036132813 1435.250610351563 285.2171936035156 1431.760131835938 285.1074523925781 C 1428.270141601563 284.9977111816406 1424.68212890625 284.8571166992188 1420.984252929688 284.6854248046875 C 1417.286865234375 284.5137634277344 1413.4794921875 284.3109130859375 1409.5498046875 284.0764770507813 C 1406.042846679688 283.8672485351563 1402.517211914063 283.6380615234375 1398.985473632813 283.3944396972656 C 1395.453979492188 283.1508483886719 1391.916137695313 282.8928527832031 1388.38427734375 282.6260986328125 C 1384.852661132813 282.3593139648438 1381.327026367188 282.0838012695313 1377.819213867188 281.8051147460938 C 1374.311889648438 281.5264282226563 1370.822509765625 281.2445983886719 1367.363037109375 280.9651794433594 C 1360.24658203125 280.3902893066406 1353.071899414063 279.810791015625 1345.84912109375 279.2667236328125 C 1338.629028320313 278.7228393554688 1331.361206054688 278.2144470214844 1324.055908203125 277.7815856933594 C 1316.753173828125 277.3489379882813 1309.413452148438 276.9918518066406 1302.046752929688 276.7503356933594 C 1294.682739257813 276.5089721679688 1287.292114257813 276.3831481933594 1279.885375976563 276.4129638671875 C 1274.781982421875 276.4334716796875 1269.791625976563 276.5264892578125 1264.897583007813 276.6929626464844 C 1260.004638671875 276.859375 1255.208129882813 277.0992736816406 1250.4912109375 277.4137268066406 C 1245.775268554688 277.7281188964844 1241.138916015625 278.1170043945313 1236.565551757813 278.5815124511719 C 1231.993286132813 279.0459899902344 1227.484008789063 279.5859680175781 1223.020751953125 280.2026062011719 C 1220.555908203125 280.5432434082031 1218.095336914063 280.9094543457031 1215.643310546875 281.3004455566406 C 1213.191650390625 281.6913757324219 1210.748413085938 282.1071166992188 1208.318115234375 282.5469055175781 C 1205.887939453125 282.9866638183594 1203.470825195313 283.4503784179688 1201.070556640625 283.9373779296875 C 1198.670654296875 284.4243469238281 1196.287719726563 284.9346008300781 1193.926391601563 285.4673156738281 C 1191.429931640625 286.0304260253906 1188.934814453125 286.6237487792969 1186.444946289063 287.2461242675781 C 1183.955444335938 287.8683776855469 1181.47119140625 288.5196533203125 1178.9970703125 289.1987609863281 C 1176.523193359375 289.8778076171875 1174.05908203125 290.5846252441406 1171.60888671875 291.3180541992188 C 1169.1591796875 292.0514221191406 1166.723388671875 292.8113708496094 1164.30615234375 293.5967407226563 C 1161.770629882813 294.4207153320313 1159.233276367188 295.2796020507813 1156.69921875 296.1718444824219 C 1154.165405273438 297.06396484375 1151.634643554688 297.9894104003906 1149.111206054688 298.9464416503906 C 1146.588134765625 299.9033813476563 1144.072387695313 300.8919067382813 1141.568603515625 301.9104309082031 C 1139.06494140625 302.9288330078125 1136.573120117188 303.9771728515625 1134.097534179688 305.0538024902344 C 1131.515502929688 306.1766967773438 1128.930053710938 307.3395080566406 1126.345581054688 308.5401000976563 C 1123.76123046875 309.7405090332031 1121.178100585938 310.9786071777344 1118.60009765625 312.252197265625 C 1116.022827148438 313.5256652832031 1113.45068359375 314.8345947265625 1110.888793945313 316.1767578125 C 1108.326904296875 317.5187377929688 1105.775024414063 318.8939819335938 1103.237670898438 320.3002014160156 C 1100.603271484375 321.7602844238281 1097.963256835938 323.2654418945313 1095.322631835938 324.812744140625 C 1092.682373046875 326.35986328125 1090.041015625 327.9491882324219 1087.403442382813 329.5777893066406 C 1084.766479492188 331.2061767578125 1082.13330078125 332.8739929199219 1079.508422851563 334.5781860351563 C 1076.884155273438 336.2821960449219 1074.26806640625 338.022705078125 1071.664916992188 339.7967834472656 C 1068.97216796875 341.6322021484375 1066.272094726563 343.5178527832031 1063.569702148438 345.4502258300781 C 1060.867797851563 347.3823852539063 1058.16357421875 349.3612670898438 1055.461547851563 351.3833312988281 C 1052.759887695313 353.4051513671875 1050.060791015625 355.4700927734375 1047.368896484375 357.5746765136719 C 1044.677124023438 359.6789855957031 1041.992431640625 361.822998046875 1039.319580078125 364.0029907226563 C 1036.29345703125 366.4713134765625 1033.26611328125 368.8924255371094 1030.24365234375 371.262451171875 C 1027.221435546875 373.6321411132813 1024.203857421875 375.9508056640625 1021.196044921875 378.2143249511719 C 1018.188659667969 380.4776306152344 1015.190856933594 382.6858520507813 1012.208129882813 384.8350524902344 C 1009.225769042969 386.9840393066406 1006.258361816406 389.0740356445313 1003.311340332031 391.1011657714844 C 1000.489929199219 393.0417785644531 997.6651611328125 394.93994140625 994.8417358398438 396.7923583984375 C 992.018798828125 398.6446838378906 989.197265625 400.4513244628906 986.3822021484375 402.2094116210938 C 983.5673828125 403.9671936035156 980.759033203125 405.6763610839844 977.9619140625 407.3338317871094 C 975.1652221679688 408.9910888671875 972.3797607421875 410.5966491699219 969.6105346679688 412.1474914550781 C 966.9751586914063 413.6234130859375 964.3333129882813 415.0615844726563 961.689453125 416.459716796875 C 959.0458374023438 417.8577270507813 956.4003295898438 419.2157287597656 953.757568359375 420.5314636230469 C 951.1151123046875 421.8470764160156 948.4751586914063 423.1203308105469 945.842529296875 424.3490600585938 C 943.2102661132813 425.5776672363281 940.5853881835938 426.7617492675781 937.9722900390625 427.8989868164063 C 935.5051879882813 428.97265625 933.0277099609375 430.013671875 930.544189453125 431.0203247070313 C 928.0610961914063 432.0269165039063 925.5719604492188 432.9992065429688 923.0811157226563 433.9355163574219 C 920.5906982421875 434.8717956542969 918.0985107421875 435.7720336914063 915.6091918945313 436.6348571777344 C 913.1201171875 437.4974975585938 910.6336669921875 438.3226013183594 908.1544189453125 439.1085510253906 C 903.6819458007813 440.5263671875 899.2001342773438 441.8307495117188 894.6930541992188 443.0253295898438 C 890.1869506835938 444.2197265625 885.6554565429688 445.30419921875 881.0825805664063 446.2824401855469 C 876.5104370117188 447.2603759765625 871.8970947265625 448.132080078125 867.226318359375 448.9009704589844 C 862.556396484375 449.6696166992188 857.8291625976563 450.3355712890625 853.028564453125 450.9021911621094 C 850.9608154296875 451.1461791992188 848.8829345703125 451.3716735839844 846.7872924804688 451.5793762207031 C 844.6919555664063 451.7870483398438 842.5787353515625 451.976806640625 840.4404296875 452.1493530273438 C 838.3021850585938 452.3218383789063 836.1387329101563 452.4771728515625 833.942626953125 452.6158447265625 C 831.74658203125 452.7545166015625 829.5178833007813 452.8764953613281 827.2488403320313 452.9825134277344 C 825.3447265625 453.0714721679688 823.4072265625 453.1489868164063 821.4293823242188 453.21533203125 C 819.4517211914063 453.2816162109375 817.4337158203125 453.3368225097656 815.3681030273438 453.3808898925781 C 813.3026123046875 453.4249877929688 811.1893920898438 453.4580078125 809.021240234375 453.4801330566406 C 806.8533325195313 453.5022583007813 804.630615234375 453.5135192871094 802.3455200195313 453.5139770507813 C 800.1083984375 453.514404296875 797.8720092773438 453.5046691894531 795.640869140625 453.4874572753906 C 793.4100341796875 453.4702758789063 791.1842041015625 453.4455261230469 788.9681396484375 453.4158630371094 C 786.752197265625 453.38623046875 784.5460205078125 453.3517150878906 782.3538818359375 453.3148803710938 C 780.1619873046875 453.2780456542969 777.9841918945313 453.2388916015625 775.8250732421875 453.2001953125 C 773.7178344726563 453.1622924804688 771.5928344726563 453.1240539550781 769.4578247070313 453.0881958007813 C 767.3228759765625 453.0522155761719 765.177734375 453.0184631347656 763.0299682617188 452.9895324707031 C 760.8825073242188 452.9606323242188 758.7323608398438 452.9365539550781 756.587158203125 452.9197082519531 C 754.4420776367188 452.9029541015625 752.3020629882813 452.8934631347656 750.1744384765625 452.8939514160156 C 745.5100708007813 452.8948974609375 741.1094360351563 452.944091796875 736.91748046875 453.0443115234375 C 732.7264404296875 453.1445617675781 728.7440185546875 453.2958679199219 724.91552734375 453.5011901855469 C 721.0875854492188 453.7064514160156 717.4134521484375 453.9656677246094 713.8384399414063 454.2817687988281 C 710.263916015625 454.5978088378906 706.7883911132813 454.9707641601563 703.3571166992188 455.4034729003906 C 699.0829467773438 455.9425659179688 694.8933715820313 456.5771484375 690.774169921875 457.3106384277344 C 686.6558227539063 458.0439758300781 682.6080322265625 458.8761596679688 678.6163940429688 459.8104248046875 C 674.6255493164063 460.7445373535156 670.6911010742188 461.7806701660156 666.7987670898438 462.9221496582031 C 662.9072265625 464.0634460449219 659.0578002929688 465.31005859375 655.2366333007813 466.6652526855469 C 653.1307373046875 467.4121398925781 651.0228881835938 468.1966552734375 648.9171142578125 469.0173950195313 C 646.8114013671875 469.8380126953125 644.7076416015625 470.6947631835938 642.6094360351563 471.5860595703125 C 640.5114135742188 472.477294921875 638.4189453125 473.403076171875 636.335693359375 474.3618774414063 C 634.2526245117188 475.3205871582031 632.1788330078125 476.3123168945313 630.1177978515625 477.3353881835938 C 627.9448852539063 478.4141540527344 625.7657470703125 479.5379638671875 623.5841064453125 480.7046813964844 C 621.4027099609375 481.8713073730469 619.218994140625 483.080810546875 617.0365600585938 484.3310241699219 C 614.8543701171875 485.5811157226563 612.6736450195313 486.8719482421875 610.498046875 488.2012329101563 C 608.3226318359375 489.5304260253906 606.1524658203125 490.8980712890625 603.9913330078125 492.3020935058594 C 601.730712890625 493.7707214355469 599.4597778320313 495.2921142578125 597.1828002929688 496.8633422851563 C 594.9059448242188 498.4343872070313 592.622802734375 500.05517578125 590.337646484375 501.722900390625 C 588.052734375 503.3904113769531 585.7655639648438 505.1048278808594 583.480224609375 506.8631896972656 C 581.1951293945313 508.6213073730469 578.911865234375 510.42333984375 576.6344604492188 512.2664794921875 C 574.2661743164063 514.18310546875 571.8840942382813 516.1600952148438 569.4924926757813 518.1940307617188 C 567.10107421875 520.2277221679688 564.7001953125 522.3181762695313 562.2938842773438 524.4617309570313 C 559.887939453125 526.6050415039063 557.4764404296875 528.80126953125 555.0638427734375 531.046875 C 552.6515502929688 533.2921752929688 550.2381591796875 535.5867919921875 547.8277587890625 537.927001953125 C 545.5567626953125 540.1317138671875 543.259521484375 542.3228149414063 540.9403686523438 544.4966430664063 C 538.6213989257813 546.6702270507813 536.280517578125 548.8265380859375 533.9215698242188 550.9616088867188 C 531.5630493164063 553.0965576171875 529.1864624023438 555.2103271484375 526.7962036132813 557.2992553710938 C 524.40625 559.3880615234375 522.0025024414063 561.4519653320313 519.589111328125 563.4872436523438 C 517.2439575195313 565.465087890625 514.8737182617188 567.4295654296875 512.4825439453125 569.3771362304688 C 510.0916442871094 571.3245849609375 507.6798400878906 573.2552490234375 505.2514953613281 575.1658325195313 C 502.8233337402344 577.076171875 500.3786010742188 578.9664306640625 497.9215698242188 580.8331909179688 C 495.4647827148438 582.69970703125 492.9956359863281 584.5427856445313 490.5184631347656 586.3591918945313 C 488.1143188476563 588.1220092773438 485.6861877441406 589.8715209960938 483.2383422851563 591.6048583984375 C 480.7908325195313 593.338134765625 478.3235473632813 595.0551147460938 475.8410339355469 596.7530517578125 C 473.3587646484375 598.4507446289063 470.8611450195313 600.1292724609375 468.3525085449219 601.7857055664063 C 465.8441772460938 603.4420166015625 463.3248901367188 605.0761108398438 460.7989501953125 606.6852416992188 C 458.3509826660156 608.2447509765625 455.8800964355469 609.791259765625 453.3907165527344 611.3223266601563 C 450.9016723632813 612.8532104492188 448.3941345214844 614.3685302734375 445.87255859375 615.8656616210938 C 443.3511962890625 617.3626098632813 440.8157958984375 618.8414306640625 438.270751953125 620.2994995117188 C 435.7259826660156 621.7573852539063 433.171630859375 623.1945190429688 430.6120300292969 624.6083374023438 C 425.7413635253906 627.2987670898438 420.803955078125 629.9309692382813 415.808837890625 632.5006713867188 C 410.8148193359375 635.06982421875 405.76318359375 637.5764770507813 400.6627807617188 640.0164794921875 C 395.5635681152344 642.4559936523438 390.4157104492188 644.8287963867188 385.2280883789063 647.130615234375 C 380.0417175292969 649.4320068359375 374.8156127929688 651.6624755859375 369.5587768554688 653.8178100585938 C 364.6719055175781 655.821533203125 359.7284240722656 657.7725830078125 354.7373352050781 659.6679077148438 C 349.7473449707031 661.5629272460938 344.7097473144531 663.4022827148438 339.6333923339844 665.1826171875 C 334.5581970214844 666.962646484375 329.4443664550781 668.6839599609375 324.3007202148438 670.3433227539063 C 319.158203125 672.0023803710938 313.9859924316406 673.5994873046875 308.7929077148438 675.1317749023438 C 304.008056640625 676.5435791015625 299.1770324707031 677.9086303710938 294.3085327148438 679.2249145507813 C 289.4410400390625 680.5408935546875 284.5360717773438 681.8079833984375 279.6022644042969 683.024169921875 C 274.6695861816406 684.2401733398438 269.7080383300781 685.4051513671875 264.7263793945313 686.5172729492188 C 259.7457580566406 687.6290283203125 254.7450256347656 688.687744140625 249.7327728271484 689.6915283203125 C 245.1667938232422 690.6057739257813 240.5653228759766 691.4795532226563 235.9366302490234 692.3116455078125 C 231.3088226318359 693.1433715820313 226.6537933349609 693.9332885742188 221.9797058105469 694.6802978515625 C 217.3065948486328 695.4270629882813 212.6144256591797 696.1306762695313 207.9113922119141 696.7900390625 C 203.2093200683594 697.4490966796875 198.4964294433594 698.0639038085938 193.7808532714844 698.6329956054688 C 185.8016357421875 699.5960083007813 177.7756805419922 700.434814453125 169.7171325683594 701.1483154296875 C 161.6614532470703 701.8616943359375 153.5732421875 702.4498291015625 145.4667510986328 702.912353515625 C 137.3631744384766 703.3746948242188 129.2413177490234 703.7113037109375 121.1153335571289 703.9214477539063 C 112.9922943115234 704.131591796875 104.8651275634766 704.2153930664063 96.74800109863281 704.1720581054688 Z M 10.20502948760986 20.17726898193359 C 8.930655479431152 20.18980979919434 7.715743541717529 20.46304702758789 6.610227108001709 20.94612121582031 C 5.50476598739624 21.42917442321777 4.508679866790771 22.12204933166504 3.671892166137695 22.97390365600586 C 2.835135221481323 23.82572364807129 2.157653331756592 24.83652496337891 1.689365744590759 25.95548057556152 C 1.221088171005249 27.07441139221191 0.9619869589805603 28.30151176452637 0.9619869589805603 29.58597373962402 L 0.9617573022842407 688.2947998046875 C 0.9617573022842407 688.8439331054688 1.00985050201416 689.38818359375 1.103824973106384 689.9215698242188 C 1.197799324989319 690.4550170898438 1.33765697479248 690.9774169921875 1.521186232566833 691.4828491210938 C 1.70471715927124 691.98828125 1.931921362876892 692.4767456054688 2.200588703155518 692.9421997070313 C 2.469259262084961 693.4075317382813 2.779394865036011 693.8496704101563 3.128785133361816 694.2626953125 C 3.479899168014526 694.6779174804688 3.865246057510376 695.0568237304688 4.279212951660156 695.396484375 C 4.69318675994873 695.736083984375 5.135782718658447 696.036376953125 5.601387023925781 696.2943725585938 C 6.066999435424805 696.5521850585938 6.555623054504395 696.7677001953125 7.061640739440918 696.9376220703125 C 7.567670822143555 697.1076049804688 8.091096878051758 697.2320556640625 8.62630558013916 697.3079223632813 C 12.33703422546387 697.8325805664063 17.06873321533203 698.4482421875 22.73550224304199 699.0802612304688 C 28.40369606018066 699.71240234375 35.00790023803711 700.36083984375 42.46231079101563 700.95068359375 C 49.91919326782227 701.540771484375 58.2274055480957 702.072265625 67.30118560791016 702.4703369140625 C 76.37861633300781 702.8685302734375 86.22282409667969 703.1331787109375 96.74800109863281 703.1891479492188 C 104.8551788330078 703.2322387695313 112.9723892211914 703.1484375 121.0854797363281 702.9384155273438 C 129.2014923095703 702.728271484375 137.3134002685547 702.3919677734375 145.4070281982422 701.9299926757813 C 153.5035400390625 701.4678955078125 161.581787109375 700.8802490234375 169.6275024414063 700.1675415039063 C 177.6761169433594 699.4547729492188 185.6921539306641 698.616943359375 193.6614074707031 697.6548461914063 C 198.3708953857422 697.0863647460938 203.0775909423828 696.4722290039063 207.7735595703125 695.81396484375 C 212.4704132080078 695.1553955078125 217.1564483642578 694.4524536132813 221.8234100341797 693.70654296875 C 226.4913940429688 692.9606323242188 231.1402893066406 692.1715087890625 235.7619934082031 691.3407592773438 C 240.3845977783203 690.509765625 244.97998046875 689.6371459960938 249.5398712158203 688.7239379882813 C 254.5450897216797 687.7216186523438 259.5387878417969 686.6641845703125 264.5123596191406 685.5538330078125 C 269.4870300292969 684.4432983398438 274.4415588378906 683.2797241210938 279.3672790527344 682.0653076171875 C 284.2940979003906 680.8507690429688 289.1920776367188 679.585205078125 294.0525817871094 678.2711181640625 C 298.9141540527344 676.9566650390625 303.7382202148438 675.5934448242188 308.5161743164063 674.18359375 C 331.7032470703125 667.3416137695313 354.1102294921875 659.336181640625 375.6999206542969 650.1859130859375 C 397.310302734375 641.0269165039063 418.1002502441406 630.7216796875 438.0326232910156 619.2889404296875 C 457.9825439453125 607.84619140625 477.0719604492188 595.2750244140625 495.2636108398438 581.5947265625 C 513.469970703125 567.903564453125 530.7755737304688 553.1026000976563 547.1435546875 537.2114868164063 C 549.55908203125 534.8662109375 551.977783203125 532.5665283203125 554.3954467773438 530.3162231445313 C 556.8132934570313 528.0656127929688 559.2301635742188 525.8643188476563 561.6417236328125 523.716064453125 C 564.0535278320313 521.5676879882813 566.4599609375 519.4722290039063 568.85693359375 517.4337158203125 C 571.2540893554688 515.39501953125 573.6417846679688 513.4131469726563 576.0156860351563 511.4919128417969 C 578.2998046875 509.6434936523438 580.5896606445313 507.8361206054688 582.8815307617188 506.07275390625 C 585.173583984375 504.3091125488281 587.4675903320313 502.5896301269531 589.759521484375 500.9170837402344 C 592.0515747070313 499.2443237304688 594.3414916992188 497.6185302734375 596.625244140625 496.0426025390625 C 598.9093017578125 494.466552734375 601.187255859375 492.9403991699219 603.455078125 491.4670715332031 C 605.6241455078125 490.0578002929688 607.8023681640625 488.6850280761719 609.9857177734375 487.350830078125 C 612.1694946289063 486.0166015625 614.3583984375 484.720947265625 616.5487670898438 483.4661254882813 C 618.7394409179688 482.2111206054688 620.9315185546875 480.9970397949219 623.1211547851563 479.8259582519531 C 625.3111572265625 478.65478515625 627.4986572265625 477.5266723632813 629.6798706054688 476.4437255859375 C 631.7495727539063 475.4161682128906 633.8323364257813 474.420166015625 635.92431640625 473.457275390625 C 638.0165405273438 472.4943542480469 640.1178588867188 471.564453125 642.2249755859375 470.6693420410156 C 644.332275390625 469.774169921875 646.4451904296875 468.9136962890625 648.5599975585938 468.0894775390625 C 650.675048828125 467.2651977539063 652.7919311523438 466.4771728515625 654.9071044921875 465.7269592285156 C 658.7452392578125 464.3656921386719 662.6115112304688 463.113525390625 666.5199584960938 461.9671020507813 C 670.4291381835938 460.8204650878906 674.3806762695313 459.7796936035156 678.3885498046875 458.8414611816406 C 682.397216796875 457.9030151367188 686.4623413085938 457.0671691894531 690.5980834960938 456.3305969238281 C 694.7344970703125 455.5939025878906 698.9417724609375 454.95654296875 703.2337646484375 454.4151306152344 C 706.6755981445313 453.9809875488281 710.1615600585938 453.6068725585938 713.7462158203125 453.2896728515625 C 717.3314819335938 452.9724731445313 721.0156860351563 452.71240234375 724.8536376953125 452.5064086914063 C 728.6922607421875 452.3003845214844 732.684814453125 452.1485290527344 736.8861083984375 452.0479431152344 C 741.0883178710938 451.9472961425781 745.4993286132813 451.8978576660156 750.1744384765625 451.8967895507813 C 752.3043212890625 451.8962707519531 754.4464111328125 451.9056701660156 756.5930786132813 451.9223937988281 C 758.7400512695313 451.9391479492188 760.8917236328125 451.9632873535156 763.0406494140625 451.9921569824219 C 765.1898803710938 452.0210266113281 767.336181640625 452.0546875 769.4722900390625 452.0906372070313 C 771.6085815429688 452.1265563964844 773.7347412109375 452.164794921875 775.8430786132813 452.2026977539063 C 778.0011596679688 452.2413940429688 780.1777954101563 452.2804260253906 782.368408203125 452.3171691894531 C 784.559326171875 452.3539123535156 786.7642211914063 452.3883972167969 788.9786987304688 452.4179382324219 C 791.193359375 452.4474792480469 793.4176025390625 452.4721984863281 795.646728515625 452.4893188476563 C 797.876220703125 452.5065002441406 800.110595703125 452.51611328125 802.3455200195313 452.5156555175781 C 804.626708984375 452.5151672363281 806.8455810546875 452.5038452148438 809.0096435546875 452.4817504882813 C 811.1739501953125 452.4595947265625 813.2833251953125 452.4265747070313 815.3450927734375 452.382568359375 C 817.406982421875 452.3385009765625 819.4212036132813 452.2834167480469 821.3949584960938 452.2171630859375 C 823.3689575195313 452.15087890625 825.302490234375 452.0734558105469 827.2028198242188 451.9846496582031 C 829.4658813476563 451.8789367675781 831.6885375976563 451.7572021484375 833.8786010742188 451.6189270019531 C 836.0689086914063 451.4806518554688 838.2263793945313 451.3257141113281 840.3587036132813 451.1535949707031 C 842.4912109375 450.9814453125 844.5986328125 450.7921752929688 846.6881713867188 450.5850219726563 C 848.7779541015625 450.3778686523438 850.849853515625 450.15283203125 852.9116821289063 449.9094543457031 C 857.6965942382813 449.3446655273438 862.4081420898438 448.6808776855469 867.0625 447.9146728515625 C 871.7177734375 447.1483459472656 876.315673828125 446.2795104980469 880.872314453125 445.3047485351563 C 885.4298095703125 444.3297729492188 889.9459838867188 443.2488403320313 894.43701171875 442.0585327148438 C 898.9287719726563 440.8679504394531 903.3952026367188 439.5678405761719 907.8524169921875 438.15478515625 C 918.5634765625 434.7591247558594 929.26953125 430.6828002929688 940.008544921875 425.9035034179688 C 950.7526245117188 421.1220092773438 961.5298461914063 415.6368713378906 972.3785400390625 409.4256896972656 C 983.2323608398438 403.2115783691406 994.1575927734375 396.2706909179688 1005.192749023438 388.5806579589844 C 1016.233276367188 380.8869323730469 1027.383666992188 372.4432373046875 1038.682861328125 363.2269592285156 C 1041.361206054688 361.0423278808594 1044.05126953125 358.8938293457031 1046.748779296875 356.7850341796875 C 1049.446533203125 354.6759643554688 1052.1513671875 352.6065673828125 1054.858642578125 350.5803833007813 C 1057.566284179688 348.5539855957031 1060.276489257813 346.5708312988281 1062.984375 344.6344299316406 C 1065.6923828125 342.6977844238281 1068.398315429688 340.8079223632813 1071.097290039063 338.9684448242188 C 1073.70654296875 337.1900024414063 1076.3291015625 335.4451904296875 1078.960083007813 333.7369689941406 C 1081.59130859375 332.0284423828125 1084.231201171875 330.3565673828125 1086.874633789063 328.7239685058594 C 1089.518432617188 327.0912780761719 1092.166381835938 325.4979248046875 1094.813354492188 323.9468383789063 C 1097.460693359375 322.3955993652344 1100.107421875 320.8865966796875 1102.748657226563 319.4227600097656 C 1105.29296875 318.0125427246094 1107.851928710938 316.6334533691406 1110.420776367188 315.2876586914063 C 1112.989990234375 313.9416809082031 1115.569213867188 312.6290283203125 1118.154052734375 311.3519897460938 C 1120.738891601563 310.0747375488281 1123.329467773438 308.8330383300781 1125.921020507813 307.629150390625 C 1128.513061523438 306.4251403808594 1131.105712890625 305.2589111328125 1133.695068359375 304.1327514648438 C 1136.177978515625 303.0528564453125 1138.677368164063 302.0013122558594 1141.1884765625 300.9797973632813 C 1143.699951171875 299.9581298828125 1146.223266601563 298.9664916992188 1148.75390625 298.0066223144531 C 1151.284912109375 297.0466613769531 1153.823486328125 296.118408203125 1156.364990234375 295.2235412597656 C 1158.90673828125 294.3285827636719 1161.451538085938 293.4670715332031 1163.994873046875 292.640625 C 1166.41943359375 291.8527221679688 1168.862670898438 291.0903625488281 1171.31982421875 290.3546447753906 C 1173.777587890625 289.6189270019531 1176.249145507813 288.9098205566406 1178.730834960938 288.2287292480469 C 1181.212646484375 287.5475158691406 1183.704223632813 286.8941345214844 1186.201293945313 286.2698974609375 C 1188.69873046875 285.6455993652344 1191.201416015625 285.0504150390625 1193.705322265625 284.4855041503906 C 1196.073974609375 283.951171875 1198.4638671875 283.4393920898438 1200.870971679688 282.950927734375 C 1203.278198242188 282.4624328613281 1205.702392578125 281.9971923828125 1208.1396484375 281.55615234375 C 1210.576782226563 281.1149597167969 1213.027099609375 280.6979675292969 1215.485961914063 280.3058471679688 C 1217.945068359375 279.9136657714844 1220.412841796875 279.5464172363281 1222.884765625 279.2048034667969 C 1227.359252929688 278.5864562988281 1231.880004882813 278.0449523925781 1236.463745117188 277.5792846679688 C 1241.048461914063 277.1134338378906 1245.69580078125 276.7234191894531 1250.422973632813 276.4081420898438 C 1255.151123046875 276.0928039550781 1259.958862304688 275.8522033691406 1264.86328125 275.6852722167969 C 1269.768432617188 275.5182189941406 1274.770263671875 275.4249267578125 1279.885375976563 275.4042358398438 C 1287.303100585938 275.3742065429688 1294.703125 275.4999389648438 1302.075805664063 275.7413024902344 C 1309.450805664063 275.9827880859375 1316.798217773438 276.3400573730469 1324.107666015625 276.7728881835938 C 1331.419677734375 277.2058715820313 1338.69384765625 277.7145080566406 1345.919921875 278.2586364746094 C 1353.148193359375 278.8029174804688 1360.328491210938 279.3827514648438 1367.449951171875 279.9577941894531 C 1370.908203125 280.2370300292969 1374.396240234375 280.5186767578125 1377.902099609375 280.7971801757813 C 1381.408569335938 281.07568359375 1384.932739257813 281.3510131835938 1388.462646484375 281.6175537109375 C 1391.992919921875 281.8841552734375 1395.52880859375 282.1419677734375 1399.05810546875 282.3853454589844 C 1402.587768554688 282.6287841796875 1406.110961914063 282.8578186035156 1409.615600585938 283.0668334960938 C 1413.53955078125 283.3008117675781 1417.34130859375 283.5033264160156 1421.033203125 283.6746520996094 C 1424.725708007813 283.8460388183594 1428.308227539063 283.986328125 1431.792846679688 284.0958251953125 C 1435.27783203125 284.2053527832031 1438.664916992188 284.2840881347656 1441.966674804688 284.3324890136719 C 1445.268798828125 284.3808288574219 1448.485229492188 284.3988037109375 1451.628173828125 284.38671875 C 1455.413208007813 284.3721923828125 1459.116821289063 284.3152770996094 1462.751586914063 284.2152099609375 C 1466.386840820313 284.1151123046875 1469.953369140625 283.9719543457031 1473.463012695313 283.7849731445313 C 1476.97314453125 283.5980224609375 1480.426635742188 283.3671875 1483.835571289063 283.0919494628906 C 1487.2451171875 282.8165893554688 1490.610473632813 282.496826171875 1493.943359375 282.1318359375 C 1497.679321289063 281.7228393554688 1501.352905273438 281.260009765625 1504.976928710938 280.7412109375 C 1508.601196289063 280.2222290039063 1512.175415039063 279.6472473144531 1515.712646484375 279.0139465332031 C 1519.250244140625 278.3805541992188 1522.750366210938 277.6888732910156 1526.225463867188 276.9365844726563 C 1529.700927734375 276.1842041015625 1533.1513671875 275.3712463378906 1536.58935546875 274.4954528808594 C 1538.40234375 274.0336608886719 1540.21484375 273.5527648925781 1542.023315429688 273.0537109375 C 1543.831909179688 272.5546264648438 1545.636596679688 272.0374145507813 1547.434692382813 271.5029907226563 C 1549.232543945313 270.968505859375 1551.0234375 270.4167785644531 1552.804077148438 269.8487854003906 C 1554.585205078125 269.2807922363281 1556.356079101563 268.6964721679688 1558.11376953125 268.0968322753906 C 1559.936767578125 267.474853515625 1561.76025390625 266.8313903808594 1563.5810546875 266.1675109863281 C 1565.401977539063 265.5036315917969 1567.220336914063 264.8193969726563 1569.033081054688 264.1160888671875 C 1570.845458984375 263.4126586914063 1572.652465820313 262.6901550292969 1574.450317382813 261.9497985839844 C 1576.248413085938 261.2093811035156 1578.03759765625 260.4510803222656 1579.814575195313 259.6761169433594 C 1581.650634765625 258.8753051757813 1583.488525390625 258.0504150390625 1585.324462890625 257.2029113769531 C 1587.160888671875 256.3553466796875 1588.995849609375 255.4852294921875 1590.825561523438 254.5940399169922 C 1592.655639648438 253.7028045654297 1594.48095703125 252.7905426025391 1596.298461914063 251.8588104248047 C 1598.116088867188 250.9270172119141 1599.925415039063 249.9757080078125 1601.7236328125 249.0064392089844 C 1603.576171875 248.0079650878906 1605.43115234375 246.9826965332031 1607.28564453125 245.9325714111328 C 1609.140258789063 244.88232421875 1610.994018554688 243.8072052001953 1612.843872070313 242.7091064453125 C 1614.694091796875 241.6109313964844 1616.540405273438 240.4897766113281 1618.379150390625 239.3475494384766 C 1620.218627929688 238.2052459716797 1622.05078125 237.0419006347656 1623.872436523438 235.8594055175781 C 1628.759155273438 232.6871948242188 1633.664916992188 229.5634613037109 1638.581420898438 226.4933166503906 C 1643.498657226563 223.4225463867188 1648.426513671875 220.4053802490234 1653.356323242188 217.4470367431641 C 1658.287231445313 214.4880828857422 1663.219970703125 211.5879669189453 1668.145874023438 208.7518768310547 C 1673.072875976563 205.9152069091797 1677.9931640625 203.1426086425781 1682.898071289063 200.4392395019531 C 1687.439208984375 197.9364471435547 1691.994384765625 195.4778442382813 1696.556030273438 193.0675201416016 C 1701.11865234375 190.6567077636719 1705.6875 188.294189453125 1710.254638671875 185.9840240478516 C 1714.822631835938 183.6733856201172 1719.38916015625 181.4151458740234 1723.94580078125 179.2132873535156 C 1728.503295898438 177.010986328125 1733.05126953125 174.8651733398438 1737.581665039063 172.7798004150391 C 1745.506591796875 169.1318664550781 1753.430908203125 165.6431579589844 1761.341186523438 162.3190765380859 C 1769.254150390625 158.9937896728516 1777.15283203125 155.8332672119141 1785.023193359375 152.8426971435547 C 1792.896484375 149.8511505126953 1800.741577148438 147.0297546386719 1808.544799804688 144.3837738037109 C 1816.350952148438 141.7369537353516 1824.11474609375 139.2656860351563 1831.822875976563 136.9753723144531 C 1845.622192382813 132.8753051757813 1858.436157226563 129.5892944335938 1870.186401367188 126.9580535888672 C 1881.942260742188 124.3254776000977 1892.632446289063 122.3485794067383 1902.178344726563 120.8676147460938 C 1911.728149414063 119.3860626220703 1920.131713867188 118.4010238647461 1927.310791015625 117.7524490356445 C 1934.491943359375 117.1036758422852 1940.447631835938 116.7916793823242 1945.098876953125 116.6561431884766 C 1946.583129882813 116.6127319335938 1947.99853515625 116.2870025634766 1949.286499023438 115.7353973388672 C 1950.57470703125 115.1837692260742 1951.7353515625 114.40625 1952.710693359375 113.4593811035156 C 1953.68603515625 112.5124588012695 1954.4755859375 111.3961639404297 1955.021484375 110.1669998168945 C 1955.5673828125 108.9378280639648 1955.869506835938 107.5958023071289 1955.869506835938 106.1974868774414 L 1955.869506835938 10.75688171386719 C 1955.869506835938 9.416562080383301 1955.587158203125 8.141450881958008 1955.077514648438 6.983570575714111 C 1954.567626953125 5.825715065002441 1953.829956054688 4.785110950469971 1952.9189453125 3.913765430450439 C 1952.008056640625 3.042453765869141 1950.923828125 2.340398550033569 1949.720825195313 1.859589695930481 C 1948.517578125 1.37880527973175 1947.195556640625 1.119251251220703 1945.809204101563 1.132891893386841 L 10.20502948760986 20.17726898193359 Z" stroke="none" fill="#d1f6ff"/>
        </g>
        <g id="wave-2" data-name="wave" transform="translate(0 0)" style="mix-blend-mode: multiply;isolation: isolate">
          <g id="Groupe_1-2" data-name="Groupe 1">
            <path id="Tracé_1-2" data-name="Tracé 1" d="M1959.73,149.906a19.771,19.771,0,0,1-.9,5.951,16.818,16.818,0,0,1-2.445,4.889,12.5,12.5,0,0,1-3.6,3.352,9.13,9.13,0,0,1-4.361,1.34,249.88,249.88,0,0,0-42.728,5.787,406.682,406.682,0,0,0-70.642,22.641c-27.718,11.57-59.4,27.775-94.362,50.448-34.913,22.639-73.094,51.719-113.873,89.062-48.969,44.842-96.054,62.1-142.685,66.889-46.538,4.778-92.625-2.865-139.676-7.912-46.955-5.037-94.866-7.489-145.127,7.57-50.153,15.026-102.636,47.484-158.826,112.188-56.053,64.545-103.488,96.447-145.982,111.957-42.415,15.482-79.926,14.639-116.16,13.6-36.177-1.033-71.085-2.257-108.319,12.381-37.173,14.614-76.656,45.035-122.005,107.219-51.047,70-107.279,119.738-163.657,154.8A521.624,521.624,0,0,1,220.2,978.747,551.153,551.153,0,0,1,85.115,991.189c-36.92-1.165-64.221-5.793-77.018-8.4a7.642,7.642,0,0,1-3.245-1.562,11.116,11.116,0,0,1-2.563-3.012,15.782,15.782,0,0,1-1.683-4.1A19.225,19.225,0,0,1,0,969.29V34.974a19.2,19.2,0,0,1,.765-5.423,15.471,15.471,0,0,1,2.088-4.444,10.591,10.591,0,0,1,3.1-3.015,7.348,7.348,0,0,1,3.793-1.134L1949.124.114a8.117,8.117,0,0,1,4.126,1.1,10.984,10.984,0,0,1,3.371,3.075,15.47,15.47,0,0,1,2.274,4.591,19.073,19.073,0,0,1,.834,5.642Z" transform="translate(0 0)" fill="#e2f4fc"/>
          </g>
        </g>
      </g>
    </g>
  </g>
</svg>
