<svg width="1091" height="248" viewBox="0 0 1091 248" fill="none" xmlns="http://www.w3.org/2000/svg">
<g id="Group 2">
<path id="arkets EsI" d="M546.086 239L535.047 239.422C534.484 237.125 534.203 234.945 534.203 232.883H533.5C527.734 238.133 519.883 240.758 509.945 240.758C504.555 240.758 499.914 239.188 496.023 236.047C492.133 232.859 490.188 228.336 490.188 222.477C490.188 215.258 493.234 209.469 499.328 205.109C505.422 200.703 516.742 198.383 533.289 198.148C533.43 197.023 533.5 195.734 533.5 194.281C533.5 188.516 531.953 184.672 528.859 182.75C525.812 180.828 521.172 179.867 514.938 179.867C507.578 179.867 500.336 180.781 493.211 182.609L494.406 172.906C501.438 170.891 509.523 169.883 518.664 169.883C527.008 169.883 533.453 171.617 538 175.086C542.547 178.508 544.82 184.367 544.82 192.664C544.82 194.867 544.703 198.875 544.469 204.688C544.281 210.453 544.188 214.297 544.188 216.219C544.188 224.75 544.82 232.344 546.086 239ZM533.641 225.359C533.406 218.234 533.289 211.836 533.289 206.164C524.477 206.164 517.773 206.82 513.18 208.133C505.492 210.477 501.648 214.953 501.648 221.562C501.648 227.938 506.148 231.125 515.148 231.125C522.883 231.125 529.047 229.203 533.641 225.359ZM606.484 172.203L603.32 183.383C599.664 181.93 596.266 181.203 593.125 181.203C584.312 181.203 578.594 185.398 575.969 193.789C575.969 215.352 576.109 230.422 576.391 239H563.945C564.695 224.141 565.07 212.609 565.07 204.406C565.07 193.297 563.969 182.656 561.766 172.484L574.07 170.727C574.961 175.883 575.406 179.328 575.406 181.062H575.969C581.031 173.609 586.938 169.883 593.688 169.883C597.25 169.883 601.516 170.656 606.484 172.203ZM675.32 239H658.797C658.797 237.359 654.25 231.102 645.156 220.227C635.828 209.023 629.969 203.422 627.578 203.422H627.086C627.086 213.453 627.344 225.312 627.859 239H615.484C616.094 221.844 616.398 204.359 616.398 186.547C616.398 168.406 615.719 152.914 614.359 140.07L627.859 139.367C627.344 149.492 627.086 169.156 627.086 198.359H627.578C629.125 198.359 633.977 194.422 642.133 186.547C650.336 178.625 654.438 173.844 654.438 172.203H669.977C669.977 173.703 666.297 177.594 658.938 183.875C652.047 189.734 645.742 194.562 640.023 198.359V198.922C645.836 203.328 653.312 210.875 662.453 221.562C671.031 231.641 675.32 237.453 675.32 239ZM743.031 197.727C743.031 199.695 742.938 202.414 742.75 205.883L694.445 206.727C694.914 213.57 697.562 219.312 702.391 223.953C707.219 228.547 713.617 230.844 721.586 230.844C728.711 230.844 735.391 229.977 741.625 228.242L740.43 238.156C735.836 239.984 729.203 240.898 720.531 240.898C708.344 240.898 699.039 237.57 692.617 230.914C686.242 224.258 683.055 216.148 683.055 206.586C683.055 196.367 685.961 187.578 691.773 180.219C697.633 172.812 705.484 169.109 715.328 169.109C724.375 169.109 731.242 171.781 735.93 177.125C740.664 182.469 743.031 189.336 743.031 197.727ZM731.289 197.867C731.289 184.695 725.781 178.109 714.766 178.109C703.516 178.109 696.883 184.953 694.867 198.641L731.289 197.867ZM797.875 229.297L797.031 238.438C793.328 239.797 789.836 240.477 786.555 240.477C778.117 240.477 772.352 238.344 769.258 234.078C766.164 229.766 764.617 222.078 764.617 211.016C764.617 203.844 764.664 194.492 764.758 182.961C762.133 182.961 758.266 183.102 753.156 183.383L753.578 173.188C758.031 173.469 762.016 173.609 765.531 173.609C765.531 170.797 765.766 164.117 766.234 153.57L777.273 152.445C776.477 162.289 776.078 169.344 776.078 173.609C780.672 173.609 787.422 173.375 796.328 172.906L795.836 183.383C787.398 183.102 780.625 182.961 775.516 182.961C775.422 190.039 775.375 198.008 775.375 206.867C775.375 216.523 776.383 222.922 778.398 226.062C780.461 229.156 784.258 230.703 789.789 230.703C791.617 230.703 794.312 230.234 797.875 229.297ZM855.742 219.945C855.742 233.633 847 240.477 829.516 240.477C821.781 240.477 814.562 239.703 807.859 238.156L810.039 227.82C816.133 230.164 822.742 231.336 829.867 231.336C840.086 231.336 845.195 228.43 845.195 222.617C845.195 219.805 844.047 217.578 841.75 215.938C839.5 214.25 835.75 212.375 830.5 210.312C823.844 207.688 819.016 205.156 816.016 202.719C811.609 199.109 809.406 194.75 809.406 189.641C809.406 184.297 811.422 179.727 815.453 175.93C819.484 172.086 825.625 170.164 833.875 170.164C841.938 170.164 848.406 170.844 853.281 172.203L851.102 182.328C846.039 180.312 840.18 179.305 833.523 179.305C824.523 179.305 820.023 181.906 820.023 187.109C820.023 189.734 821.031 191.867 823.047 193.508C825.062 195.102 829 197.047 834.859 199.344C841.188 201.828 845.875 204.266 848.922 206.656C853.469 210.359 855.742 214.789 855.742 219.945ZM963.672 228.383L963.25 239H906.578C907.234 224.469 907.562 208.438 907.562 190.906C907.562 174.406 907.234 159.922 906.578 147.453H959.734L959.172 157.93C946.281 157.367 932.617 157.086 918.18 157.086C918.461 164.352 918.602 174.172 918.602 186.547C931.07 186.547 942.18 186.266 951.93 185.703V196.18C941.523 195.758 930.414 195.547 918.602 195.547C918.602 207.594 918.812 218.891 919.234 229.438C934.797 229.438 949.609 229.086 963.672 228.383ZM1022.24 219.945C1022.24 233.633 1013.5 240.477 996.016 240.477C988.281 240.477 981.062 239.703 974.359 238.156L976.539 227.82C982.633 230.164 989.242 231.336 996.367 231.336C1006.59 231.336 1011.7 228.43 1011.7 222.617C1011.7 219.805 1010.55 217.578 1008.25 215.938C1006 214.25 1002.25 212.375 997 210.312C990.344 207.688 985.516 205.156 982.516 202.719C978.109 199.109 975.906 194.75 975.906 189.641C975.906 184.297 977.922 179.727 981.953 175.93C985.984 172.086 992.125 170.164 1000.38 170.164C1008.44 170.164 1014.91 170.844 1019.78 172.203L1017.6 182.328C1012.54 180.312 1006.68 179.305 1000.02 179.305C991.023 179.305 986.523 181.906 986.523 187.109C986.523 189.734 987.531 191.867 989.547 193.508C991.562 195.102 995.5 197.047 1001.36 199.344C1007.69 201.828 1012.38 204.266 1015.42 206.656C1019.97 210.359 1022.24 214.789 1022.24 219.945ZM1055.22 239H1041.86C1042.56 223.812 1042.91 207.781 1042.91 190.906C1042.91 174.312 1042.56 159.828 1041.86 147.453H1055.22C1054.56 160.25 1054.23 174.734 1054.23 190.906C1054.23 207.875 1054.56 223.906 1055.22 239Z" fill="black"/>
<g id="Union">
<mask id="path-2-inside-1" fill="white">
<path fill-rule="evenodd" clip-rule="evenodd" d="M1051.82 70L1090.01 81.8997L1087.04 91.4469L1048.85 79.5472L1051.82 70ZM1078.11 120.089L1039.92 108.189L1036.95 117.736L1075.14 129.636L1078.11 120.089ZM1072.16 139.183L1033.97 127.283L1031 136.831L1069.19 148.73L1072.16 139.183ZM1084.06 100.994L1045.87 89.0945L1042.9 98.6417L1081.09 110.541L1084.06 100.994Z"/>
</mask>
<path fill-rule="evenodd" clip-rule="evenodd" d="M1051.82 70L1090.01 81.8997L1087.04 91.4469L1048.85 79.5472L1051.82 70ZM1078.11 120.089L1039.92 108.189L1036.95 117.736L1075.14 129.636L1078.11 120.089ZM1072.16 139.183L1033.97 127.283L1031 136.831L1069.19 148.73L1072.16 139.183ZM1084.06 100.994L1045.87 89.0945L1042.9 98.6417L1081.09 110.541L1084.06 100.994Z" fill="#FB8500"/>
<path d="M1090.01 81.8997L1090.97 82.1972L1091.27 81.2425L1090.31 80.945L1090.01 81.8997ZM1051.82 70L1052.12 69.0453L1051.17 68.7478L1050.87 69.7025L1051.82 70ZM1087.04 91.4469L1086.74 92.4017L1087.7 92.6992L1087.99 91.7444L1087.04 91.4469ZM1048.85 79.5472L1047.89 79.2497L1047.6 80.2045L1048.55 80.502L1048.85 79.5472ZM1039.92 108.189L1040.22 107.234L1039.27 106.937L1038.97 107.891L1039.92 108.189ZM1078.11 120.089L1079.07 120.386L1079.37 119.431L1078.41 119.134L1078.11 120.089ZM1036.95 117.736L1036 117.439L1035.7 118.393L1036.65 118.691L1036.95 117.736ZM1075.14 129.636L1074.84 130.591L1075.8 130.888L1076.09 129.933L1075.14 129.636ZM1033.97 127.283L1034.27 126.329L1033.32 126.031L1033.02 126.986L1033.97 127.283ZM1072.16 139.183L1073.12 139.481L1073.42 138.526L1072.46 138.228L1072.16 139.183ZM1031 136.831L1030.05 136.533L1029.75 137.488L1030.7 137.785L1031 136.831ZM1069.19 148.73L1068.89 149.685L1069.85 149.983L1070.14 149.028L1069.19 148.73ZM1045.87 89.0945L1046.17 88.1398L1045.22 87.8423L1044.92 88.797L1045.87 89.0945ZM1084.06 100.994L1085.02 101.292L1085.32 100.337L1084.36 100.039L1084.06 100.994ZM1042.9 98.6417L1041.94 98.3442L1041.65 99.299L1042.6 99.5964L1042.9 98.6417ZM1081.09 110.541L1080.79 111.496L1081.75 111.794L1082.04 110.839L1081.09 110.541ZM1090.31 80.945L1052.12 69.0453L1051.53 70.9547L1089.72 82.8544L1090.31 80.945ZM1087.99 91.7444L1090.97 82.1972L1089.06 81.6022L1086.08 91.1495L1087.99 91.7444ZM1048.55 80.502L1086.74 92.4017L1087.34 90.4922L1049.15 78.5925L1048.55 80.502ZM1050.87 69.7025L1047.89 79.2497L1049.8 79.8447L1052.78 70.2975L1050.87 69.7025ZM1039.63 109.144L1077.82 121.043L1078.41 119.134L1040.22 107.234L1039.63 109.144ZM1037.9 118.034L1040.88 108.486L1038.97 107.891L1036 117.439L1037.9 118.034ZM1075.44 128.681L1037.25 116.781L1036.65 118.691L1074.84 130.591L1075.44 128.681ZM1077.16 119.791L1074.18 129.338L1076.09 129.933L1079.07 120.386L1077.16 119.791ZM1033.68 128.238L1071.87 140.138L1072.46 138.228L1034.27 126.329L1033.68 128.238ZM1031.95 137.128L1034.93 127.581L1033.02 126.986L1030.05 136.533L1031.95 137.128ZM1069.49 147.776L1031.3 135.876L1030.7 137.785L1068.89 149.685L1069.49 147.776ZM1071.21 138.886L1068.23 148.433L1070.14 149.028L1073.12 139.481L1071.21 138.886ZM1045.58 90.0492L1083.77 101.949L1084.36 100.039L1046.17 88.1398L1045.58 90.0492ZM1043.85 98.9392L1046.83 89.392L1044.92 88.797L1041.94 98.3442L1043.85 98.9392ZM1081.39 109.587L1043.2 97.687L1042.6 99.5964L1080.79 111.496L1081.39 109.587ZM1083.11 100.697L1080.13 110.244L1082.04 110.839L1085.02 101.292L1083.11 100.697Z" fill="#FB8500" mask="url(#path-2-inside-1)"/>
</g>
<g id="Group 1">
<g id="Vector 5">
<path d="M142 1H80L1 239H40L105 44.5H120.5L165.5 132L181 88L142 1Z" fill="#219EBC"/>
<path d="M142 1H80L1 239H40L105 44.5H120.5L165.5 132L181 88L142 1Z" fill="url(#paint0_linear)"/>
<path d="M142 1H80L1 239H40L105 44.5H120.5L165.5 132L181 88L142 1Z" stroke="#BECAE6"/>
</g>
<path id="Vector 6" d="M210 1L131 238H174.5L236.5 46.5H250L309 159L369 46.5H381L444.5 238H486.5L408 1H347.5L309 83.5L270 1H210Z" fill="#023047" stroke="#023047"/>
</g>
</g>
<defs>
<linearGradient id="paint0_linear" x1="125" y1="1" x2="181" y2="120" gradientUnits="userSpaceOnUse">
<stop stop-color="#023047"/>
<stop offset="1" stop-color="#219EBC"/>
</linearGradient>
</defs>
</svg>


