<svg width="1920" height="733" viewBox="0 0 1920 733" fill="none" xmlns="http://www.w3.org/2000/svg">
<g filter="url(#filter0_i)">
<path d="M1922.5 100.752C1922.5 106.559 1917.64 111.262 1911.84 111.393C1877.4 112.168 1762.26 123.168 1606.42 226.28C1418.92 350.339 1258.79 168.706 1038.62 350.339C818.452 531.971 731.995 347.32 550.395 524.5C345.545 724.366 55.3333 695.827 2.81107 688.736C-2.00554 688.085 -5.50035 683.953 -5.50035 679.092L-5.50019 7.50012C-5.50024 1.97727 -1.02302 -2.49988 4.49978 -2.49986L1912.5 -2.49992C1918.02 -2.49992 1922.5 1.97724 1922.5 7.50009L1922.5 100.752Z" fill="#E8F4FA"/>
</g>
<path d="M1922 100.752C1922 106.271 1917.38 110.768 1911.83 110.893C1877.3 111.67 1762.07 122.695 1606.14 225.863C1520.91 282.254 1441.38 275.376 1359.09 268.26C1351.02 267.563 1342.93 266.863 1334.81 266.221C1289.3 262.622 1242.73 260.817 1193.75 271.285C1144.77 281.755 1093.41 304.496 1038.3 349.953C983.308 395.322 936.687 417.8 894.863 428.778C853.033 439.758 815.973 439.245 780.054 438.589L778.51 438.561C743.148 437.913 708.828 437.284 672.196 447.6C635.019 458.07 595.494 479.8 550.046 524.142C345.376 723.832 55.3829 695.329 2.87799 688.24C-1.68215 687.624 -5.00036 683.711 -5.0003 679.092L-5.00013 7.50013C-5.0002 2.25343 -0.746839 -1.99988 4.49982 -1.99988L1912.5 -1.99994C1917.75 -1.99992 1922 2.25338 1922 7.5001L1922 100.752Z" stroke="#219EBC"/>
<defs>
<filter id="filter0_i" x="-147.457" y="-402.295" width="2133.95" height="1138.33" filterUnits="userSpaceOnUse" color-interpolation-filters="sRGB">
<feFlood flood-opacity="0" result="BackgroundImageFix"/>
<feBlend mode="normal" in="SourceGraphic" in2="BackgroundImageFix" result="shape"/>
<feColorMatrix in="SourceAlpha" type="matrix" values="0 0 0 0 0 0 0 0 0 0 0 0 0 0 0 0 0 0 127 0" result="hardAlpha"/>
<feOffset dy="4"/>
<feGaussianBlur stdDeviation="2"/>
<feComposite in2="hardAlpha" operator="arithmetic" k2="-1" k3="1"/>
<feColorMatrix type="matrix" values="0 0 0 0 0 0 0 0 0 0 0 0 0 0 0 0 0 0 0.32 0"/>
<feBlend mode="normal" in2="shape" result="effect1_innerShadow"/>
</filter>
</defs>
</svg>
