<svg width="1070" height="248" viewBox="0 0 1070 248" fill="none" xmlns="http://www.w3.org/2000/svg">
<g id="Group 2">
<path id="arkets EsI" d="M542.43 241.312C542.43 241.875 542.242 242.297 541.867 242.578C541.492 242.859 540.977 243.07 540.32 243.211C539.664 243.352 538.703 243.422 537.438 243.422C536.219 243.422 535.234 243.352 534.484 243.211C533.781 243.07 533.266 242.859 532.938 242.578C532.609 242.297 532.445 241.875 532.445 241.312V234.984C529.68 237.938 526.586 240.234 523.164 241.875C519.789 243.516 516.203 244.336 512.406 244.336C509.078 244.336 506.055 243.891 503.336 243C500.664 242.156 498.367 240.914 496.445 239.273C494.57 237.633 493.094 235.617 492.016 233.227C490.984 230.836 490.469 228.117 490.469 225.07C490.469 221.508 491.195 218.414 492.648 215.789C494.102 213.164 496.188 210.984 498.906 209.25C501.625 207.516 504.953 206.227 508.891 205.383C512.828 204.492 517.258 204.047 522.18 204.047H530.898V199.125C530.898 196.688 530.641 194.531 530.125 192.656C529.609 190.781 528.766 189.234 527.594 188.016C526.469 186.75 524.992 185.812 523.164 185.203C521.336 184.547 519.086 184.219 516.414 184.219C513.555 184.219 510.977 184.57 508.68 185.273C506.43 185.93 504.438 186.68 502.703 187.523C501.016 188.32 499.586 189.07 498.414 189.773C497.289 190.43 496.445 190.758 495.883 190.758C495.508 190.758 495.18 190.664 494.898 190.477C494.617 190.289 494.359 190.008 494.125 189.633C493.938 189.258 493.797 188.789 493.703 188.227C493.609 187.617 493.562 186.961 493.562 186.258C493.562 185.086 493.633 184.172 493.773 183.516C493.961 182.812 494.359 182.156 494.969 181.547C495.625 180.938 496.727 180.234 498.273 179.438C499.82 178.594 501.602 177.844 503.617 177.188C505.633 176.484 507.836 175.922 510.227 175.5C512.617 175.031 515.031 174.797 517.469 174.797C522.016 174.797 525.883 175.312 529.07 176.344C532.258 177.375 534.836 178.898 536.805 180.914C538.773 182.883 540.203 185.344 541.094 188.297C541.984 191.25 542.43 194.695 542.43 198.633V241.312ZM530.898 212.414H520.984C517.797 212.414 515.031 212.695 512.688 213.258C510.344 213.773 508.398 214.57 506.852 215.648C505.305 216.68 504.156 217.945 503.406 219.445C502.703 220.898 502.352 222.586 502.352 224.508C502.352 227.789 503.383 230.414 505.445 232.383C507.555 234.305 510.484 235.266 514.234 235.266C517.281 235.266 520.094 234.492 522.672 232.945C525.297 231.398 528.039 229.031 530.898 225.844V212.414ZM600.789 182.109C600.789 183.141 600.766 184.008 600.719 184.711C600.672 185.414 600.578 185.977 600.438 186.398C600.297 186.773 600.109 187.078 599.875 187.312C599.688 187.5 599.406 187.594 599.031 187.594C598.656 187.594 598.188 187.5 597.625 187.312C597.109 187.078 596.5 186.867 595.797 186.68C595.141 186.445 594.391 186.234 593.547 186.047C592.703 185.859 591.789 185.766 590.805 185.766C589.633 185.766 588.484 186 587.359 186.469C586.234 186.938 585.039 187.711 583.773 188.789C582.555 189.867 581.266 191.297 579.906 193.078C578.547 194.859 577.047 197.039 575.406 199.617V241.242C575.406 241.617 575.312 241.945 575.125 242.227C574.938 242.461 574.633 242.672 574.211 242.859C573.789 243.047 573.203 243.188 572.453 243.281C571.703 243.375 570.742 243.422 569.57 243.422C568.445 243.422 567.508 243.375 566.758 243.281C566.008 243.188 565.398 243.047 564.93 242.859C564.508 242.672 564.203 242.461 564.016 242.227C563.875 241.945 563.805 241.617 563.805 241.242V177.961C563.805 177.586 563.875 177.281 564.016 177.047C564.156 176.766 564.438 176.531 564.859 176.344C565.281 176.109 565.82 175.969 566.477 175.922C567.133 175.828 568 175.781 569.078 175.781C570.109 175.781 570.953 175.828 571.609 175.922C572.312 175.969 572.852 176.109 573.227 176.344C573.602 176.531 573.859 176.766 574 177.047C574.188 177.281 574.281 177.586 574.281 177.961V187.172C576.016 184.641 577.633 182.578 579.133 180.984C580.68 179.391 582.133 178.148 583.492 177.258C584.852 176.32 586.188 175.688 587.5 175.359C588.859 174.984 590.219 174.797 591.578 174.797C592.188 174.797 592.867 174.844 593.617 174.938C594.414 174.984 595.234 175.102 596.078 175.289C596.922 175.477 597.672 175.688 598.328 175.922C599.031 176.156 599.523 176.391 599.805 176.625C600.086 176.859 600.273 177.094 600.367 177.328C600.461 177.516 600.531 177.773 600.578 178.102C600.672 178.43 600.719 178.922 600.719 179.578C600.766 180.188 600.789 181.031 600.789 182.109ZM665.969 241.172C665.969 241.547 665.875 241.875 665.688 242.156C665.5 242.438 665.172 242.672 664.703 242.859C664.281 243.047 663.672 243.188 662.875 243.281C662.078 243.375 661.07 243.422 659.852 243.422C658.586 243.422 657.531 243.375 656.688 243.281C655.891 243.234 655.211 243.141 654.648 243C654.086 242.812 653.617 242.578 653.242 242.297C652.914 241.969 652.609 241.594 652.328 241.172L625.609 206.156V241.242C625.609 241.617 625.516 241.945 625.328 242.227C625.141 242.461 624.836 242.672 624.414 242.859C623.992 243.047 623.406 243.188 622.656 243.281C621.906 243.375 620.945 243.422 619.773 243.422C618.648 243.422 617.711 243.375 616.961 243.281C616.211 243.188 615.602 243.047 615.133 242.859C614.711 242.672 614.406 242.461 614.219 242.227C614.078 241.945 614.008 241.617 614.008 241.242V147.305C614.008 146.93 614.078 146.602 614.219 146.32C614.406 146.039 614.711 145.805 615.133 145.617C615.602 145.43 616.211 145.289 616.961 145.195C617.711 145.102 618.648 145.055 619.773 145.055C620.945 145.055 621.906 145.102 622.656 145.195C623.406 145.289 623.992 145.43 624.414 145.617C624.836 145.805 625.141 146.039 625.328 146.32C625.516 146.602 625.609 146.93 625.609 147.305V204.539L649.516 178.242C649.891 177.773 650.289 177.398 650.711 177.117C651.133 176.789 651.625 176.531 652.188 176.344C652.797 176.109 653.5 175.969 654.297 175.922C655.094 175.828 656.055 175.781 657.18 175.781C658.352 175.781 659.336 175.828 660.133 175.922C660.93 175.969 661.562 176.086 662.031 176.273C662.547 176.414 662.898 176.625 663.086 176.906C663.32 177.141 663.438 177.469 663.438 177.891C663.438 178.453 663.273 179.016 662.945 179.578C662.664 180.141 662.172 180.797 661.469 181.547L638.547 204.469L664.281 237.867C664.891 238.664 665.312 239.32 665.547 239.836C665.828 240.305 665.969 240.75 665.969 241.172ZM728.898 206.859C728.898 208.688 728.43 210 727.492 210.797C726.602 211.547 725.57 211.922 724.398 211.922H682.914C682.914 215.438 683.266 218.602 683.969 221.414C684.672 224.227 685.844 226.641 687.484 228.656C689.125 230.672 691.258 232.219 693.883 233.297C696.508 234.375 699.719 234.914 703.516 234.914C706.516 234.914 709.188 234.68 711.531 234.211C713.875 233.695 715.891 233.133 717.578 232.523C719.312 231.914 720.719 231.375 721.797 230.906C722.922 230.391 723.766 230.133 724.328 230.133C724.656 230.133 724.938 230.227 725.172 230.414C725.453 230.555 725.664 230.789 725.805 231.117C725.945 231.445 726.039 231.914 726.086 232.523C726.18 233.086 726.227 233.789 726.227 234.633C726.227 235.242 726.203 235.781 726.156 236.25C726.109 236.672 726.039 237.07 725.945 237.445C725.898 237.773 725.781 238.078 725.594 238.359C725.453 238.641 725.242 238.922 724.961 239.203C724.727 239.438 723.977 239.859 722.711 240.469C721.445 241.031 719.805 241.594 717.789 242.156C715.773 242.719 713.43 243.211 710.758 243.633C708.133 244.102 705.32 244.336 702.32 244.336C697.117 244.336 692.547 243.609 688.609 242.156C684.719 240.703 681.438 238.547 678.766 235.688C676.094 232.828 674.078 229.242 672.719 224.93C671.359 220.617 670.68 215.602 670.68 209.883C670.68 204.445 671.383 199.57 672.789 195.258C674.195 190.898 676.211 187.219 678.836 184.219C681.508 181.172 684.719 178.852 688.469 177.258C692.219 175.617 696.414 174.797 701.055 174.797C706.023 174.797 710.242 175.594 713.711 177.188C717.227 178.781 720.109 180.938 722.359 183.656C724.609 186.328 726.25 189.492 727.281 193.148C728.359 196.758 728.898 200.625 728.898 204.75V206.859ZM717.227 203.414C717.367 197.32 716.008 192.539 713.148 189.07C710.336 185.602 706.141 183.867 700.562 183.867C697.703 183.867 695.195 184.406 693.039 185.484C690.883 186.562 689.078 187.992 687.625 189.773C686.172 191.555 685.047 193.641 684.25 196.031C683.453 198.375 683.008 200.836 682.914 203.414H717.227ZM778.68 236.602C778.68 237.961 778.586 239.039 778.398 239.836C778.211 240.633 777.93 241.219 777.555 241.594C777.18 241.969 776.617 242.32 775.867 242.648C775.117 242.977 774.25 243.234 773.266 243.422C772.328 243.656 771.32 243.844 770.242 243.984C769.164 244.125 768.086 244.195 767.008 244.195C763.727 244.195 760.914 243.773 758.57 242.93C756.227 242.039 754.305 240.727 752.805 238.992C751.305 237.211 750.203 234.984 749.5 232.312C748.844 229.594 748.516 226.406 748.516 222.75V185.766H739.656C738.953 185.766 738.391 185.391 737.969 184.641C737.547 183.891 737.336 182.672 737.336 180.984C737.336 180.094 737.383 179.344 737.477 178.734C737.617 178.125 737.781 177.633 737.969 177.258C738.156 176.836 738.391 176.555 738.672 176.414C739 176.227 739.352 176.133 739.727 176.133H748.516V161.086C748.516 160.758 748.586 160.453 748.727 160.172C748.914 159.891 749.219 159.656 749.641 159.469C750.109 159.234 750.719 159.07 751.469 158.977C752.219 158.883 753.156 158.836 754.281 158.836C755.453 158.836 756.414 158.883 757.164 158.977C757.914 159.07 758.5 159.234 758.922 159.469C759.344 159.656 759.648 159.891 759.836 160.172C760.023 160.453 760.117 160.758 760.117 161.086V176.133H776.359C776.734 176.133 777.062 176.227 777.344 176.414C777.625 176.555 777.859 176.836 778.047 177.258C778.281 177.633 778.445 178.125 778.539 178.734C778.633 179.344 778.68 180.094 778.68 180.984C778.68 182.672 778.469 183.891 778.047 184.641C777.625 185.391 777.062 185.766 776.359 185.766H760.117V221.062C760.117 225.422 760.75 228.727 762.016 230.977C763.328 233.18 765.648 234.281 768.977 234.281C770.055 234.281 771.016 234.188 771.859 234C772.703 233.766 773.453 233.531 774.109 233.297C774.766 233.062 775.328 232.852 775.797 232.664C776.266 232.43 776.688 232.312 777.062 232.312C777.297 232.312 777.508 232.383 777.695 232.523C777.93 232.617 778.094 232.828 778.188 233.156C778.328 233.484 778.445 233.93 778.539 234.492C778.633 235.055 778.68 235.758 778.68 236.602ZM833.734 224.016C833.734 227.25 833.125 230.133 831.906 232.664C830.734 235.195 829.047 237.328 826.844 239.062C824.641 240.797 822.016 242.109 818.969 243C815.922 243.891 812.57 244.336 808.914 244.336C806.664 244.336 804.508 244.148 802.445 243.773C800.43 243.445 798.602 243.023 796.961 242.508C795.367 241.945 794.008 241.383 792.883 240.82C791.758 240.211 790.938 239.672 790.422 239.203C789.906 238.734 789.531 238.078 789.297 237.234C789.062 236.391 788.945 235.242 788.945 233.789C788.945 232.898 788.992 232.148 789.086 231.539C789.18 230.93 789.297 230.438 789.438 230.062C789.578 229.688 789.766 229.43 790 229.289C790.281 229.102 790.586 229.008 790.914 229.008C791.43 229.008 792.18 229.336 793.164 229.992C794.195 230.602 795.438 231.281 796.891 232.031C798.391 232.781 800.148 233.484 802.164 234.141C804.18 234.75 806.5 235.055 809.125 235.055C811.094 235.055 812.875 234.844 814.469 234.422C816.062 234 817.445 233.391 818.617 232.594C819.789 231.75 820.68 230.695 821.289 229.43C821.945 228.164 822.273 226.664 822.273 224.93C822.273 223.148 821.805 221.648 820.867 220.43C819.977 219.211 818.781 218.133 817.281 217.195C815.781 216.258 814.094 215.438 812.219 214.734C810.344 213.984 808.398 213.211 806.383 212.414C804.414 211.617 802.469 210.727 800.547 209.742C798.672 208.711 796.984 207.469 795.484 206.016C793.984 204.562 792.766 202.828 791.828 200.812C790.938 198.797 790.492 196.383 790.492 193.57C790.492 191.086 790.961 188.719 791.898 186.469C792.883 184.172 794.336 182.18 796.258 180.492C798.18 178.758 800.57 177.375 803.43 176.344C806.336 175.312 809.711 174.797 813.555 174.797C815.242 174.797 816.93 174.938 818.617 175.219C820.305 175.5 821.828 175.852 823.188 176.273C824.547 176.695 825.695 177.164 826.633 177.68C827.617 178.148 828.344 178.57 828.812 178.945C829.328 179.32 829.656 179.648 829.797 179.93C829.984 180.211 830.102 180.539 830.148 180.914C830.242 181.242 830.312 181.664 830.359 182.18C830.453 182.695 830.5 183.328 830.5 184.078C830.5 184.875 830.453 185.578 830.359 186.188C830.312 186.75 830.195 187.219 830.008 187.594C829.867 187.969 829.68 188.25 829.445 188.438C829.211 188.578 828.953 188.648 828.672 188.648C828.25 188.648 827.641 188.391 826.844 187.875C826.047 187.359 825.016 186.82 823.75 186.258C822.484 185.648 820.984 185.086 819.25 184.57C817.562 184.055 815.617 183.797 813.414 183.797C811.445 183.797 809.711 184.031 808.211 184.5C806.711 184.922 805.469 185.555 804.484 186.398C803.547 187.195 802.82 188.156 802.305 189.281C801.836 190.406 801.602 191.625 801.602 192.938C801.602 194.766 802.07 196.312 803.008 197.578C803.945 198.797 805.164 199.875 806.664 200.812C808.164 201.75 809.875 202.594 811.797 203.344C813.719 204.094 815.664 204.867 817.633 205.664C819.648 206.461 821.617 207.352 823.539 208.336C825.508 209.32 827.242 210.516 828.742 211.922C830.242 213.328 831.438 215.016 832.328 216.984C833.266 218.953 833.734 221.297 833.734 224.016ZM934.984 238.008C934.984 238.852 934.938 239.602 934.844 240.258C934.75 240.867 934.586 241.383 934.352 241.805C934.117 242.227 933.836 242.531 933.508 242.719C933.227 242.906 932.898 243 932.523 243H888.859C887.781 243 886.75 242.648 885.766 241.945C884.828 241.195 884.359 239.906 884.359 238.078V156.938C884.359 155.109 884.828 153.844 885.766 153.141C886.75 152.391 887.781 152.016 888.859 152.016H932.031C932.406 152.016 932.734 152.109 933.016 152.297C933.344 152.484 933.602 152.789 933.789 153.211C933.977 153.633 934.117 154.172 934.211 154.828C934.352 155.438 934.422 156.211 934.422 157.148C934.422 157.992 934.352 158.742 934.211 159.398C934.117 160.008 933.977 160.523 933.789 160.945C933.602 161.32 933.344 161.602 933.016 161.789C932.734 161.977 932.406 162.07 932.031 162.07H896.453V190.617H926.969C927.344 190.617 927.672 190.734 927.953 190.969C928.281 191.156 928.539 191.438 928.727 191.812C928.961 192.188 929.125 192.703 929.219 193.359C929.312 194.016 929.359 194.789 929.359 195.68C929.359 196.523 929.312 197.25 929.219 197.859C929.125 198.469 928.961 198.961 928.727 199.336C928.539 199.711 928.281 199.992 927.953 200.18C927.672 200.32 927.344 200.391 926.969 200.391H896.453V232.945H932.523C932.898 232.945 933.227 233.039 933.508 233.227C933.836 233.414 934.117 233.719 934.352 234.141C934.586 234.516 934.75 235.031 934.844 235.688C934.938 236.297 934.984 237.07 934.984 238.008ZM993.062 224.016C993.062 227.25 992.453 230.133 991.234 232.664C990.062 235.195 988.375 237.328 986.172 239.062C983.969 240.797 981.344 242.109 978.297 243C975.25 243.891 971.898 244.336 968.242 244.336C965.992 244.336 963.836 244.148 961.773 243.773C959.758 243.445 957.93 243.023 956.289 242.508C954.695 241.945 953.336 241.383 952.211 240.82C951.086 240.211 950.266 239.672 949.75 239.203C949.234 238.734 948.859 238.078 948.625 237.234C948.391 236.391 948.273 235.242 948.273 233.789C948.273 232.898 948.32 232.148 948.414 231.539C948.508 230.93 948.625 230.438 948.766 230.062C948.906 229.688 949.094 229.43 949.328 229.289C949.609 229.102 949.914 229.008 950.242 229.008C950.758 229.008 951.508 229.336 952.492 229.992C953.523 230.602 954.766 231.281 956.219 232.031C957.719 232.781 959.477 233.484 961.492 234.141C963.508 234.75 965.828 235.055 968.453 235.055C970.422 235.055 972.203 234.844 973.797 234.422C975.391 234 976.773 233.391 977.945 232.594C979.117 231.75 980.008 230.695 980.617 229.43C981.273 228.164 981.602 226.664 981.602 224.93C981.602 223.148 981.133 221.648 980.195 220.43C979.305 219.211 978.109 218.133 976.609 217.195C975.109 216.258 973.422 215.438 971.547 214.734C969.672 213.984 967.727 213.211 965.711 212.414C963.742 211.617 961.797 210.727 959.875 209.742C958 208.711 956.312 207.469 954.812 206.016C953.312 204.562 952.094 202.828 951.156 200.812C950.266 198.797 949.82 196.383 949.82 193.57C949.82 191.086 950.289 188.719 951.227 186.469C952.211 184.172 953.664 182.18 955.586 180.492C957.508 178.758 959.898 177.375 962.758 176.344C965.664 175.312 969.039 174.797 972.883 174.797C974.57 174.797 976.258 174.938 977.945 175.219C979.633 175.5 981.156 175.852 982.516 176.273C983.875 176.695 985.023 177.164 985.961 177.68C986.945 178.148 987.672 178.57 988.141 178.945C988.656 179.32 988.984 179.648 989.125 179.93C989.312 180.211 989.43 180.539 989.477 180.914C989.57 181.242 989.641 181.664 989.688 182.18C989.781 182.695 989.828 183.328 989.828 184.078C989.828 184.875 989.781 185.578 989.688 186.188C989.641 186.75 989.523 187.219 989.336 187.594C989.195 187.969 989.008 188.25 988.773 188.438C988.539 188.578 988.281 188.648 988 188.648C987.578 188.648 986.969 188.391 986.172 187.875C985.375 187.359 984.344 186.82 983.078 186.258C981.812 185.648 980.312 185.086 978.578 184.57C976.891 184.055 974.945 183.797 972.742 183.797C970.773 183.797 969.039 184.031 967.539 184.5C966.039 184.922 964.797 185.555 963.812 186.398C962.875 187.195 962.148 188.156 961.633 189.281C961.164 190.406 960.93 191.625 960.93 192.938C960.93 194.766 961.398 196.312 962.336 197.578C963.273 198.797 964.492 199.875 965.992 200.812C967.492 201.75 969.203 202.594 971.125 203.344C973.047 204.094 974.992 204.867 976.961 205.664C978.977 206.461 980.945 207.352 982.867 208.336C984.836 209.32 986.57 210.516 988.07 211.922C989.57 213.328 990.766 215.016 991.656 216.984C992.594 218.953 993.062 221.297 993.062 224.016ZM1023.16 241.172C1023.16 241.547 1023.06 241.875 1022.88 242.156C1022.69 242.438 1022.36 242.672 1021.89 242.859C1021.42 243 1020.79 243.117 1019.99 243.211C1019.24 243.352 1018.28 243.422 1017.11 243.422C1015.98 243.422 1015.02 243.352 1014.23 243.211C1013.43 243.117 1012.8 243 1012.33 242.859C1011.86 242.672 1011.53 242.438 1011.34 242.156C1011.16 241.875 1011.06 241.547 1011.06 241.172V153.844C1011.06 153.469 1011.16 153.141 1011.34 152.859C1011.58 152.578 1011.93 152.367 1012.4 152.227C1012.91 152.039 1013.55 151.898 1014.3 151.805C1015.09 151.664 1016.03 151.594 1017.11 151.594C1018.28 151.594 1019.24 151.664 1019.99 151.805C1020.79 151.898 1021.42 152.039 1021.89 152.227C1022.36 152.367 1022.69 152.578 1022.88 152.859C1023.06 153.141 1023.16 153.469 1023.16 153.844V241.172Z" fill="white"/>
<g id="Union">
<mask id="path-2-inside-1" fill="white">
<path fill-rule="evenodd" clip-rule="evenodd" d="M1030.82 69L1069.01 80.8997L1066.04 90.4469L1027.85 78.5472L1030.82 69ZM1057.11 119.089L1018.92 107.189L1015.95 116.736L1054.14 128.636L1057.11 119.089ZM1051.16 138.183L1012.97 126.283L1010 135.831L1048.19 147.73L1051.16 138.183ZM1063.06 99.9942L1024.87 88.0945L1021.9 97.6417L1060.09 109.541L1063.06 99.9942Z"/>
</mask>
<path fill-rule="evenodd" clip-rule="evenodd" d="M1030.82 69L1069.01 80.8997L1066.04 90.4469L1027.85 78.5472L1030.82 69ZM1057.11 119.089L1018.92 107.189L1015.95 116.736L1054.14 128.636L1057.11 119.089ZM1051.16 138.183L1012.97 126.283L1010 135.831L1048.19 147.73L1051.16 138.183ZM1063.06 99.9942L1024.87 88.0945L1021.9 97.6417L1060.09 109.541L1063.06 99.9942Z" fill="#FB8500"/>
<path d="M1069.01 80.8997L1069.97 81.1972L1070.27 80.2425L1069.31 79.945L1069.01 80.8997ZM1030.82 69L1031.12 68.0453L1030.17 67.7478L1029.87 68.7025L1030.82 69ZM1066.04 90.4469L1065.74 91.4017L1066.7 91.6992L1066.99 90.7444L1066.04 90.4469ZM1027.85 78.5472L1026.89 78.2497L1026.6 79.2045L1027.55 79.502L1027.85 78.5472ZM1018.92 107.189L1019.22 106.234L1018.27 105.937L1017.97 106.891L1018.92 107.189ZM1057.11 119.089L1058.07 119.386L1058.37 118.431L1057.41 118.134L1057.11 119.089ZM1015.95 116.736L1015 116.439L1014.7 117.393L1015.65 117.691L1015.95 116.736ZM1054.14 128.636L1053.84 129.591L1054.8 129.888L1055.09 128.933L1054.14 128.636ZM1012.97 126.283L1013.27 125.329L1012.32 125.031L1012.02 125.986L1012.97 126.283ZM1051.16 138.183L1052.12 138.481L1052.42 137.526L1051.46 137.228L1051.16 138.183ZM1010 135.831L1009.05 135.533L1008.75 136.488L1009.7 136.785L1010 135.831ZM1048.19 147.73L1047.89 148.685L1048.85 148.983L1049.14 148.028L1048.19 147.73ZM1024.87 88.0945L1025.17 87.1398L1024.22 86.8423L1023.92 87.797L1024.87 88.0945ZM1063.06 99.9942L1064.02 100.292L1064.32 99.337L1063.36 99.0395L1063.06 99.9942ZM1021.9 97.6417L1020.94 97.3442L1020.65 98.299L1021.6 98.5964L1021.9 97.6417ZM1060.09 109.541L1059.79 110.496L1060.75 110.794L1061.04 109.839L1060.09 109.541ZM1069.31 79.945L1031.12 68.0453L1030.53 69.9547L1068.72 81.8544L1069.31 79.945ZM1066.99 90.7444L1069.97 81.1972L1068.06 80.6022L1065.08 90.1495L1066.99 90.7444ZM1027.55 79.502L1065.74 91.4017L1066.34 89.4922L1028.15 77.5925L1027.55 79.502ZM1029.87 68.7025L1026.89 78.2497L1028.8 78.8447L1031.78 69.2975L1029.87 68.7025ZM1018.63 108.144L1056.82 120.043L1057.41 118.134L1019.22 106.234L1018.63 108.144ZM1016.9 117.034L1019.88 107.486L1017.97 106.891L1015 116.439L1016.9 117.034ZM1054.44 127.681L1016.25 115.781L1015.65 117.691L1053.84 129.591L1054.44 127.681ZM1056.16 118.791L1053.18 128.338L1055.09 128.933L1058.07 119.386L1056.16 118.791ZM1012.68 127.238L1050.87 139.138L1051.46 137.228L1013.27 125.329L1012.68 127.238ZM1010.95 136.128L1013.93 126.581L1012.02 125.986L1009.05 135.533L1010.95 136.128ZM1048.49 146.776L1010.3 134.876L1009.7 136.785L1047.89 148.685L1048.49 146.776ZM1050.21 137.886L1047.23 147.433L1049.14 148.028L1052.12 138.481L1050.21 137.886ZM1024.58 89.0492L1062.77 100.949L1063.36 99.0395L1025.17 87.1398L1024.58 89.0492ZM1022.85 97.9392L1025.83 88.392L1023.92 87.797L1020.94 97.3442L1022.85 97.9392ZM1060.39 108.587L1022.2 96.687L1021.6 98.5964L1059.79 110.496L1060.39 108.587ZM1062.11 99.6967L1059.13 109.244L1061.04 109.839L1064.02 100.292L1062.11 99.6967Z" fill="#FB8500" mask="url(#path-2-inside-1)"/>
</g>
<g id="Group 1">
<g id="Vector 5">
<path d="M142 1H80L1 239H40L105 44.5H120.5L165.5 132L181 88L142 1Z" fill="#219EBC"/>
<path d="M142 1H80L1 239H40L105 44.5H120.5L165.5 132L181 88L142 1Z" fill="url(#paint0_linear)"/>
<path d="M142 1H80L1 239H40L105 44.5H120.5L165.5 132L181 88L142 1Z" stroke="#BECAE6"/>
</g>
<path id="Vector 6" d="M210 1L131 238H174.5L236.5 46.5H250L309 159L369 46.5H381L444.5 238H486.5L408 1H347.5L309 83.5L270 1H210Z" fill="#26B7FF" stroke="#023047"/>
</g>
</g>
<defs>
<linearGradient id="paint0_linear" x1="125" y1="1" x2="181" y2="120" gradientUnits="userSpaceOnUse">
<stop stop-color="#0EA3ED"/>
<stop offset="1" stop-color="#219EBC"/>
</linearGradient>
</defs>
</svg>
