<svg width="741" height="169" viewBox="0 0 741 169" fill="none" xmlns="http://www.w3.org/2000/svg">
<g filter="url(#filter0_i)">
<path d="M730.227 0.557882C740.907 0.560516 744.012 14.6995 734.243 19.015C689.057 38.9766 616.751 69.261 573.229 78.9889C506.36 93.9353 449.741 78.6716 353.588 112.507C257.435 146.342 217.153 87.3023 148.209 133.106C73.1136 182.997 20.9078 167.829 5.09762 161.091C1.88292 159.721 0.076922 156.508 0.0763489 153.014L0.0529584 10.382C0.0520525 4.85757 4.53097 0.379014 10.0554 0.380375L334.128 0.460218L590.258 0.523361L730.227 0.557882Z" fill="#8ECAE6" fill-opacity="0.5"/>
</g>
<path d="M0.576326 153.014L0.552977 10.3819C0.552125 5.13371 4.80707 0.879089 10.0553 0.880375L334.128 0.960213L590.258 1.02337L730.227 1.05789C740.389 1.06039 743.294 14.47 734.041 18.5577C688.846 38.5235 616.585 68.7857 573.12 78.501C547.3 84.2722 523.023 85.531 497.352 86.862C489.832 87.2519 482.191 87.648 474.357 88.1657C439.798 90.4492 401.556 95.0974 353.422 112.035C307.216 128.295 273.964 123.054 244.132 118.352C243.008 118.175 241.888 117.999 240.773 117.824C225.422 115.422 210.861 113.383 195.816 114.824C180.758 116.267 165.235 121.195 147.933 132.69C72.9932 182.477 20.9678 167.311 5.29367 160.631C2.29188 159.352 0.576912 156.341 0.576326 153.014Z" stroke="#8ECAE6"/>
<defs>
<filter id="filter0_i" x="0.00183105" y="0.024353" width="740.208" height="168.62" filterUnits="userSpaceOnUse" color-interpolation-filters="sRGB">
<feFlood flood-opacity="0" result="BackgroundImageFix"/>
<feBlend mode="normal" in="SourceGraphic" in2="BackgroundImageFix" result="shape"/>
<feColorMatrix in="SourceAlpha" type="matrix" values="0 0 0 0 0 0 0 0 0 0 0 0 0 0 0 0 0 0 127 0" result="hardAlpha"/>
<feOffset/>
<feGaussianBlur stdDeviation="4"/>
<feComposite in2="hardAlpha" operator="arithmetic" k2="-1" k3="1"/>
<feColorMatrix type="matrix" values="0 0 0 0 0.556863 0 0 0 0 0.792157 0 0 0 0 0.901961 0 0 0 1 0"/>
<feBlend mode="normal" in2="shape" result="effect1_innerShadow"/>
</filter>
</defs>
</svg>
